<svg
  xmlns="http://www.w3.org/2000/svg"
  viewBox="0 0 512 512"
  fill="none"
>
  <g fill="#6f9f92">
    <path
      d="M111 279C111 271.82 116.82 266 124 266H191V293H124C116.82 293 111 287.18 111 280V279Z"
    />
    <path
      d="M257 67C273.02 67 286 79.98 286 96V273H228V96C228 79.98 240.98 67 257 67Z"
    />
    <path d="M228 273H286L257 333L228 273Z" />
    <path
      d="M290 238H438L489 256L438 274H290L264 256L290 238Z"
    />
    <path
      d="M286 224L404 154L445 161L425 193L319 257L286 224Z"
    />
  </g>
  <g fill="#f8f6f1">
    <path d="M243 276H271L257 315L243 276Z" />
    <rect
      x="388"
      y="166"
      width="28"
      height="28"
      rx="3"
      transform="rotate(-31 388 166)"
    />
  </g>
  <path
    fill="#6f9f92"
    fill-rule="evenodd"
    d="M257 210C282.957 210 304 231.043 304 257C304 282.957 282.957 304 257 304C231.043 304 210 282.957 210 257C210 231.043 231.043 210 257 210ZM257 229C272.464 229 285 241.536 285 257C285 272.464 272.464 285 257 285C241.536 285 229 272.464 229 257C229 241.536 241.536 229 257 229Z"
    clip-rule="evenodd"
  />
</svg>
